<?xml version="1.0" encoding="utf-8"?><svg viewBox="0 0 25 25" xmlns="http://www.w3.org/2000/svg" xmlns:xlink="http://www.w3.org/1999/xlink"><style>:root>svg{display:none}:root>svg:target{display:block}</style><svg viewBox="0 0 25 25" id="star" xmlns="http://www.w3.org/2000/svg"><path d="M11.348 1.412c.363-1.115 1.94-1.115 2.304 0l2.122 6.513c.163.499.628.836 1.152.836h6.86c1.175 0 1.662 1.504.71 2.194l-5.543 4.016a1.212 1.212 0 00-.441 1.357l2.119 6.503c.363 1.116-.913 2.046-1.863 1.357l-5.557-4.026a1.212 1.212 0 00-1.422 0l-5.557 4.026c-.95.689-2.226-.24-1.863-1.357l2.12-6.503a1.212 1.212 0 00-.442-1.357L.503 10.955c-.951-.69-.464-2.194.711-2.194h6.86c.524 0 .99-.337 1.152-.836z"/></svg></svg>