<?xml version="1.0" encoding="utf-8"?><svg viewBox="0 0 50 50" xmlns="http://www.w3.org/2000/svg" xmlns:xlink="http://www.w3.org/1999/xlink"><style>:root>svg{display:none}:root>svg:target{display:block}</style><svg viewBox="0 0 50 50" id="behance" xmlns="http://www.w3.org/2000/svg"><path d="M27.585 14.564v3.51h12.191v-3.51zm6.096 5.787c-4.156 0-7.543 3.387-7.543 7.543 0 4.155 3.387 7.542 7.543 7.542a7.566 7.566 0 006.531-3.77l.155-.267-3.025-1.75h3.881v-1.755c0-4.156-3.387-7.543-7.542-7.543zm0 3.51c1.567 0 2.826.97 3.493 2.277h-6.987c.667-1.307 1.926-2.276 3.494-2.276zm-3.494 5.788h7.137l-.15.258a4.05 4.05 0 01-3.493 2.018c-1.568 0-2.827-.97-3.494-2.276zM8.777 14.564v20.872h8.99a6.106 6.106 0 006.095-6.096c0-1.713-.753-3.232-1.896-4.34 1.143-1.108 1.896-2.627 1.896-4.34a6.106 6.106 0 00-6.096-6.096zm3.51 3.51h5.48a2.584 2.584 0 012.584 2.586 2.584 2.584 0 01-2.585 2.585h-5.478zm0 8.681h5.48a2.584 2.584 0 012.584 2.585 2.584 2.584 0 01-2.585 2.585h-5.478zM7.543 0C3.387 0 0 3.387 0 7.542v34.916C0 46.613 3.387 50 7.542 50h34.916C46.614 50 50 46.613 50 42.458V7.542C50 3.387 46.614 0 42.458 0zm0 3.51h34.916a4.032 4.032 0 014.031 4.032v34.916a4.032 4.032 0 01-4.031 4.031H7.542a4.032 4.032 0 01-4.031-4.031V7.542a4.032 4.032 0 014.031-4.031z"/></svg><svg viewBox="0 0 50 50" id="dribble" xmlns="http://www.w3.org/2000/svg"><path d="M25 0C11.543 0 .555 11.225.555 24.999S11.543 50 25 50s24.444-11.227 24.444-25.001C49.444 11.225 38.457 0 25 0zm0 3.845c4.916 0 9.4 1.742 12.938 4.664-1.8 2.261-5.095 5.396-10.636 7.454-3.007-5.562-5.526-9.13-7.273-11.48A20.503 20.503 0 0125 3.845zM16.303 5.83c1.473 1.94 4.124 5.574 7.286 11.273-8.114 2.173-15.465 2.32-18.51 2.224 1.634-6.01 5.772-10.925 11.224-13.497zm24.337 5.347a21.393 21.393 0 014.913 16.156l-.342-.051a25.448 25.448 0 00-1.712-.203h-.002a48.61 48.61 0 00-10.94.41 91.8 91.8 0 00-3.526-8.091c5.801-2.27 9.483-5.625 11.61-8.22zM25.376 20.59a92.46 92.46 0 013.408 7.67c-4.963 1.507-9.435 4.915-12.903 8.112a62.857 62.857 0 00-4.49 4.554A21.275 21.275 0 014.306 25.01c0-.62.044-1.211.09-1.807l.002-.044c2.686.109 11.24.196 20.978-2.57zm19.425 10.516A21.028 21.028 0 0136.646 42.5c-.623-3.955-1.586-7.752-2.75-11.334a47.084 47.084 0 013.917-.361h.007c2.33-.084 4.26-.082 6.98.3zm-14.666.757c1.34 3.954 2.398 8.175 2.998 12.598a20.43 20.43 0 01-8.145 1.695c-3.87 0-7.449-1.093-10.54-2.957 1.045-1.142 2.338-2.524 3.935-3.977v-.003c3.308-3.036 7.69-6.175 11.752-7.356z"/></svg><svg viewBox="0 0 50 50" id="instagram" xmlns="http://www.w3.org/2000/svg"><path d="M14.752 0v.012C6.947.012.556 6.536.556 14.527v20.98C.556 43.487 6.946 50 14.752 50H35.27c7.793 0 14.173-6.523 14.173-14.515v-20.97C49.444 6.523 43.063 0 35.258 0zm0 3.858h20.506c5.799 0 10.426 4.74 10.426 10.67v20.97c0 5.928-4.627 10.669-10.414 10.669H14.752c-5.81 0-10.436-4.743-10.436-10.648V14.54C4.328 8.6 8.952 3.858 14.752 3.858zm25.301 3.845c-1.027 0-1.88.863-1.88 1.921 0 1.059.853 1.924 1.88 1.924s1.88-.865 1.88-1.924c0-1.058-.853-1.921-1.88-1.921zm-15.042 3.845c-7.23 0-13.162 6.055-13.162 13.458 0 7.404 5.932 13.458 13.162 13.458s13.162-6.054 13.162-13.458c0-7.403-5.932-13.458-13.162-13.458zm0 3.846c5.235 0 9.402 4.272 9.402 9.612s-4.167 9.612-9.402 9.612c-5.234 0-9.402-4.272-9.402-9.612s4.167-9.612 9.402-9.612z"/></svg><svg viewBox="0 0 50 50" id="linkedin" xmlns="http://www.w3.org/2000/svg"><path d="M7.543.066C3.388.066 0 3.443 0 7.588v34.824c0 4.145 3.388 7.522 7.543 7.522h34.914c4.155 0 7.543-3.377 7.543-7.522V7.588C50 3.443 46.612.066 42.457.066zm0 3.502h34.914c2.227 0 4.035 1.8 4.035 4.02v34.824c0 2.22-1.808 4.02-4.035 4.02H7.543a4.027 4.027 0 01-4.033-4.02V7.588c0-2.22 1.806-4.02 4.033-4.02zm9.213 7.889c-1.676.002-2.87 1.186-2.867 2.842.003 1.655 1.179 2.835 2.826 2.834.844 0 1.564-.293 2.072-.793s.805-1.206.803-2.033c-.003-.837-.296-1.55-.797-2.053-.5-.503-1.209-.798-2.037-.797zm15.549 7.791c-.88.019-1.725.2-2.516.63-.81.442-1.421 1.097-1.951 1.833-.037.052-.076.101-.113.152l-.043-.02v-2.202h-5.287v16.431h5.293v-.252c0-2.97-.002-5.941 0-8.912 0-.194.01-.391.013-.586.015-.817.373-1.477.92-2.062 1.089-1.165 3.825-1.309 4.46 1.148.153.596.198 1.2.198 1.81v8.854h5.301c.004-.07.01-.13.01-.191 0-3.121.003-6.242 0-9.363-.001-1.085-.112-2.156-.447-3.194-.43-1.332-1.167-2.444-2.373-3.203-.941-.592-1.986-.84-3.086-.873a7.479 7.479 0 00-.38 0zm-18.407.387v16.447h5.264V19.635z"/></svg><svg viewBox="0 0 25 25" id="star" xmlns="http://www.w3.org/2000/svg"><path d="M11.348 1.412c.363-1.115 1.94-1.115 2.304 0l2.122 6.513c.163.499.628.836 1.152.836h6.86c1.175 0 1.662 1.504.71 2.194l-5.543 4.016a1.212 1.212 0 00-.441 1.357l2.119 6.503c.363 1.116-.913 2.046-1.863 1.357l-5.557-4.026a1.212 1.212 0 00-1.422 0l-5.557 4.026c-.95.689-2.226-.24-1.863-1.357l2.12-6.503a1.212 1.212 0 00-.442-1.357L.503 10.955c-.951-.69-.464-2.194.711-2.194h6.86c.524 0 .99-.337 1.152-.836z"/></svg></svg>