<svg width="100" height="100" xmlns="http://www.w3.org/2000/svg">
<defs><radialGradient id="prefix__a" cx="0" cy="0" r="1" gradientUnits="userSpaceOnUse" gradientTransform="matrix(75.98871 0 0 75.6376 32.945 22.435)"><stop stop-color="#34364E" stop-opacity=".98"/><stop offset="1" stop-color="#0C0824"/></radialGradient></defs>
<path d="M0 0h100v100H0z" fill="url(#prefix__a)"/>
<path d="M4.168 4.275h91.684v91.45H4.168zM0 100h100V0H0zm67.435-58.96c-3.287 0-4.409 1.706-4.409 3.124 0 1.54.742 2.61 5.17 4.952 6.534 3.247 8.578 6.371 8.578 10.933 0 6.844-5.09 10.522-11.964 10.522-3.628 0-6.754-.76-8.537-1.829-.301-.123-.341-.35-.341-.678v-6.309c0-.432.2-.555.5-.35a15.254 15.254 0 008.378 2.528c3.286 0 4.669-1.418 4.669-3.329 0-1.541-.962-2.897-5.17-5.138-5.912-2.897-8.377-5.836-8.377-10.768 0-5.508 4.208-10.09 11.503-10.09 3.587 0 6.092.554 7.455 1.191.34.206.42.555.42.864v5.857c0 .349-.2.554-.62.431-1.844-1.192-4.55-1.911-7.255-1.911zm-35.832 5.076c.962.082 1.704.082 3.367.082 4.87 0 9.459-1.747 9.459-8.549 0-5.425-3.287-8.159-8.838-8.159-1.663 0-3.246.083-4.008.124zm-7.435-22.688c0-.308.582-.514.922-.514 2.665-.123 6.633-.205 10.742-.205 11.543 0 16.052 6.494 16.052 14.776C51.884 48.335 44.208 53 34.79 53c-1.584 0-2.125-.082-3.247-.082v16.4c0 .35-.12.514-.5.514h-6.374c-.34 0-.5-.124-.5-.514z" fill="#31c5f0"/>
</svg>