<svg width="100" height="100" xmlns="http://www.w3.org/2000/svg">
<radialGradient id="prefix__a" cx="0" cy="0" r="1" gradientUnits="userSpaceOnUse" gradientTransform="matrix(69.66677 0 0 69.17966 34.36 24.771)"><stop stop-color="#39464D" stop-opacity=".98"/><stop offset="1" stop-color="#05151F"/></radialGradient>
<path d="M4.168 4.274h91.668V95.73H4.168z" fill="url(#prefix__a)"/>
<path d="M4.168 4.275h91.668v91.454H4.168zM0 100h100V0H0zm58.54-57.908c0-.512 0-1.752-.208-4.143 0-.34.084-.427.332-.554 2.54-1.067 8.584-2.95 15.332-2.95.332 0 .5.086.5.427v6.154c0 .34-.124.426-.5.426-2.624-.127-6.5.214-7.96.854v26.966c0 .34-.124.513-.5.513H59c-.332 0-.5-.128-.5-.513v-27.18zM27.708 69.785c-.5 0-.624-.214-.624-.64v-45.94c0-.341.124-.555.5-.555h6.584c.332 0 .416.127.416.513v39.573h17.168c.332 0 .46.128.376.513l-1.04 6.068c-.084.34-.292.513-.624.513H27.708z" fill="#aad1eb"/>
</svg>