<svg width="100" height="100" xmlns="http://www.w3.org/2000/svg">
<defs><radialGradient id="prefix__a" cx="0" cy="0" r="1" gradientUnits="userSpaceOnUse" gradientTransform="matrix(69.65694 0 0 69.172 34.38 24.794)"><stop stop-color="#423325" stop-opacity=".98"/><stop offset="1" stop-color="#1C0A00"/></radialGradient></defs>
<path d="M4.165 4.271h91.65v91.456H4.165z" fill="url(#prefix__a)"/>
<path d="M4.165 4.272h91.65v91.456H4.165zM0 100h100V0H0zm65.499-64.346c0-.349.12-.513.5-.513h6.548c.34 0 .5.123.5.513v33.724c0 .349-.08.513-.5.513H66.08c-.42 0-.54-.205-.54-.554V35.654zm-.461-9.714c0-2.732 1.882-4.354 4.245-4.354 2.543 0 4.245 1.745 4.245 4.354 0 2.813-1.782 4.354-4.325 4.354-2.403.02-4.165-1.52-4.165-4.354zM46.296 49.702c-1.162-4.744-3.925-15.075-4.966-20.086h-.08c-.882 4.99-3.084 13.452-4.826 20.086zm-11.574 6.922l-3.284 12.815c-.08.35-.2.432-.621.432H24.69c-.42 0-.501-.124-.42-.637L36.102 26.76c.2-.76.34-1.458.42-3.553 0-.308.121-.431.341-.431h8.75c.301 0 .421.082.501.431l13.256 46.108c.08.35 0 .555-.34.555h-6.908c-.34 0-.541-.083-.621-.39l-3.424-12.857z" fill="#ff7f18"/>
</svg>