<svg width="100" height="100" xmlns="http://www.w3.org/2000/svg">
<path d="M15.046 88.991c8.038 0 14.558-6.64 14.558-14.826V59.34H15.046c-8.04 0-14.56 6.64-14.56 14.825 0 8.186 6.521 14.826 14.56 14.826z" fill="#0acf83" transform="matrix(1.12371 0 0 1.12371 16.723 0)" clip-path="url(#prefix__clipPath1347)"/>
<path d="M.487 44.496c0-8.186 6.52-14.826 14.558-14.826h14.56v29.67h-14.56C7.008 59.32.488 52.681.488 44.495z" fill="#a259ff" transform="matrix(1.12371 0 0 1.12371 16.723 0)" clip-path="url(#prefix__clipPath1343)"/>
<path d="M.487 14.826C.487 6.64 7.007 0 15.046 0h14.558v29.67H15.046c-8.04 0-14.56-6.658-14.56-14.844z" fill="#f24e1e" transform="matrix(1.12371 0 0 1.12371 16.723 0)" clip-path="url(#prefix__clipPath1339)"/>
<path d="M50.01 0h16.36c9.033 0 16.36 7.461 16.36 16.66s-7.327 16.66-16.36 16.66H50.01z" fill="#ff7262"/>
<path d="M82.73 50c0 9.2-7.327 16.66-16.36 16.66S50.01 59.2 50.01 50c0-9.198 7.327-16.66 16.36-16.66S82.73 40.802 82.73 50z" fill="#1abcfe"/>
</svg>