<svg width="100" height="100" xmlns="http://www.w3.org/2000/svg">
<defs><radialGradient id="prefix__a" cx="0" cy="0" r="1" gradientUnits="userSpaceOnUse" gradientTransform="matrix(76.00332 0 0 75.63407 32.965 22.42)"><stop stop-color="#442F55" stop-opacity=".98"/><stop offset="1" stop-color="#12002C"/></radialGradient></defs>
<path d="M0 0h100v100H0z" fill="url(#prefix__a)"/>
<path d="M4.165 4.272h91.65v91.456H4.165zM0 100h100V0H0zm70.745-51.797c2.122 0 2.883 0 3.084-.082 0-.308.08-.514.08-.72 0-2.3-1.082-6.571-5.407-6.571-4.005 0-5.707 3.594-6.127 7.393h8.37zm-8.45 5.853c.08 5.771 2.743 9.653 9.09 9.653 2.464 0 4.586-.349 6.789-1.314.3-.123.5-.082.5.308v5.34c0 .431-.12.636-.42.862-2.203 1.11-4.966 1.623-8.37 1.623-10.993 0-15.118-8.339-15.118-17.601 0-10.085 5.086-18.34 14.037-18.34 9.09 0 12.254 7.824 12.254 14.19 0 2.055-.12 3.718-.34 4.54-.08.349-.2.472-.54.554-.842.124-3.285.309-6.95.309H62.316v-.124zm-22.347-4.354c-1.161-4.744-4.005-15.075-5.046-20.086h-.08c-.881 4.99-3.164 13.452-4.866 20.086zm-11.694 6.922L24.97 69.398c-.08.35-.2.473-.62.473h-6.148c-.42 0-.5-.124-.42-.637l11.834-42.432c.2-.76.34-1.376.42-3.512 0-.308.12-.431.34-.431h8.75c.301 0 .421.082.502.431l13.235 46.026c.08.35 0 .555-.34.555h-6.868c-.34 0-.54-.124-.621-.432L41.61 56.624z" fill="#d8a1ff"/>
</svg>