<?xml version="1.0" encoding="UTF-8" standalone="no"?>
<!-- Created with Inkscape (http://www.inkscape.org/) -->

<svg
   width="100"
   height="100"
   viewBox="0 0 100 100"
   version="1.1"
   id="svg13"
   xml:space="preserve"
   inkscape:version="1.2 (dc2aedaf03, 2022-05-15)"
   sodipodi:docname="adobe-xd.svg"
   xmlns:inkscape="http://www.inkscape.org/namespaces/inkscape"
   xmlns:sodipodi="http://sodipodi.sourceforge.net/DTD/sodipodi-0.dtd"
   xmlns="http://www.w3.org/2000/svg"
   xmlns:svg="http://www.w3.org/2000/svg"><sodipodi:namedview
     id="namedview15"
     pagecolor="#ffffff"
     bordercolor="#666666"
     borderopacity="1.0"
     inkscape:showpageshadow="2"
     inkscape:pageopacity="0.0"
     inkscape:pagecheckerboard="0"
     inkscape:deskcolor="#d1d1d1"
     inkscape:document-units="mm"
     showgrid="false"
     inkscape:zoom="4.7572176"
     inkscape:cx="50.659865"
     inkscape:cy="50.975175"
     inkscape:window-width="1488"
     inkscape:window-height="884"
     inkscape:window-x="1801"
     inkscape:window-y="10"
     inkscape:window-maximized="0"
     inkscape:current-layer="layer1" /><defs
     id="defs10"><radialGradient
       id="paint0_radial_167_562"
       cx="0"
       cy="0"
       r="1"
       gradientUnits="userSpaceOnUse"
       gradientTransform="matrix(62.0565,0,0,61.1565,27.8385,18.5656)"><stop
         stop-color="#34364E"
         stop-opacity="0.98"
         id="stop19" /><stop
         offset="1"
         stop-color="#0C0824"
         id="stop21" /></radialGradient><radialGradient
       id="paint0_radial_254_423"
       cx="0"
       cy="0"
       r="1"
       gradientUnits="userSpaceOnUse"
       gradientTransform="matrix(62.1407,0,0,61.2673,27.1549,18.9444)"><stop
         stop-color="#442F55"
         stop-opacity="0.98"
         id="stop218" /><stop
         offset="1"
         stop-color="#12002C"
         id="stop220" /></radialGradient></defs><g
     inkscape:label="Слой 1"
     inkscape:groupmode="layer"
     id="layer1"><g
       style="fill:none"
       id="g269"
       transform="matrix(1.2257223,0,0,1.2600883,-0.24067057,-0.89338246)"><path
         d="M 0.19635,0.708984 H 81.7809 V 80.0685 H 0.19635 Z"
         fill="#2e001e"
         id="path260" /></g><g
       style="fill:none"
       id="g280"
       transform="matrix(1.1235957,0,0,1.1524056,-0.54698436,0)"><path
         d="M 0.486816,0 V 86.775 H 89.4868 V 0 Z M 4.19634,3.70952 H 85.7809 V 83.069 H 4.19634 Z"
         fill="#ff2bc2"
         id="path271" /></g><g
       style="fill:none"
       id="g291"
       transform="matrix(1.2232557,0,0,1.1522462,16.194634,26.037605)"><path
         d="m 48.1222,16.4548 c -0.5554,-0.2599 -1.2603,-0.3702 -2.1503,-0.3702 -4.6742,0 -7.7892,3.5956 -7.7892,9.5693 0,6.8245 3.1897,9.5692 7.3442,9.5692 0.89,0 1.8548,-0.1103 2.5597,-0.4094 V 16.4548 Z m -16.611,9.491 c 0,-8.6401 5.5643,-15.3899 14.685,-15.3899 0.7797,0 1.1855,0 1.9295,0.0748 V 0.99017 c 0,-0.22072 0.1852,-0.370239 0.3703,-0.370239 h 5.9701 c 0.2955,0 0.3702,0.11036 0.3702,0.29548 V 34.8102 c 0,1.0003 0,2.2606 0.1852,3.6347 0,0.2599 0,0.2955 -0.2243,0.4094 -3.115,1.4846 -6.3795,2.1503 -9.4945,2.1503 C 37.2571,41.001 31.5112,36.0348 31.5112,25.9458 Z M 18.8661,19.9401 29.2506,40.0754 c 0.1851,0.2955 0.0748,0.5945 -0.2243,0.5945 h -6.4542 c -0.4094,0 -0.5946,-0.1103 -0.7797,-0.4806 -2.3745,-4.895 -4.7846,-9.9751 -7.2695,-15.2403 H 14.4481 C 12.2231,29.9187 9.77741,35.3335 7.40289,40.2285 7.21777,40.524 7.03265,40.6379 6.73361,40.6379 H 0.581934 c -0.37024,0 -0.4094,-0.2955 -0.22428,-0.5198 L 10.5179,20.5737 0.692293,1.14325 C 0.468013,0.847772 0.692294,0.587891 0.952174,0.587891 H 7.33169 c 0.37024,0 0.55536,0.07476 0.66928,0.4094 C 10.3363,5.92789 12.7109,10.7873 14.9359,15.7571 h 0.0747 c 2.1503,-4.895 4.5248,-9.82565 6.7854,-14.68505 0.1851,-0.295478 0.2955,-0.480598 0.6693,-0.480598 h 5.9701 c 0.2955,0 0.4094,0.224279 0.2243,0.555358 z"
         fill="#ff2bc2"
         id="path282" /></g></g></svg>
