<svg width="100" height="100" xmlns="http://www.w3.org/2000/svg">
<defs><radialGradient id="prefix__a" cx="0" cy="0" r="1" gradientUnits="userSpaceOnUse" gradientTransform="matrix(69.66713 0 0 69.17926 34.36 24.77)"><stop stop-color="#4B2D4F" stop-opacity=".98"/><stop offset="1" stop-color="#180024"/></radialGradient></defs>
<path d="M4.168 4.274h91.669V95.73H4.167z" fill="url(#prefix__a)"/>
<path d="M4.168 4.275h91.669V95.73H4.167zM-.001 100h100V0H0zm60-57.777c0-.513 0-1.752-.206-4.143 0-.341.039-.426.331-.553 2.54-1.067 8.5-2.95 15.247-2.95.333 0 .501.085.501.426v6.195c0 .34-.123.427-.46.427-2.624-.127-6.416.213-7.877.852v26.925c0 .341-.123.514-.499.514h-6.539c-.333 0-.501-.127-.501-.514zm-26.667 3.89c.96.086 1.708.086 3.376.086 4.877 0 9.46-1.752 9.46-8.545 0-5.428-3.252-8.165-8.832-8.165-1.668 0-3.247.086-4 .127zM25.96 23.416c0-.3.083-.513.416-.513 2.667-.127 6.584-.213 10.708-.213 11.539 0 16.584 6.495 16.584 14.831 0 10.856-7.669 15.511-17.084 15.511-1.585 0-2.124-.086-3.253-.086v16.41c0 .341-.124.513-.5.513h-6.416c-.331 0-.5-.127-.5-.513v-45.94z" fill="#e579ff"/>
</svg>