<svg width="50" height="50" viewBox="0 0 50 50" version="1.1" xmlns="http://www.w3.org/2000/svg">
<path d="m 27.584876,14.564043 v 3.510802 h 12.191358 v -3.510802 z m 6.095679,5.787037 c -4.155967,0 -7.542437,3.386511 -7.542437,7.542438 0,4.155809 3.38647,7.542439 7.542437,7.542439 2.684906,0 5.186354,-1.443339 6.531637,-3.76929 l 0.154321,-0.268133 -3.024692,-1.749614 h 3.881173 v -1.755402 c 0,-4.155927 -3.38659,-7.542438 -7.542439,-7.542438 z m 0,3.510802 c 1.567839,0 2.826329,0.969482 3.493442,2.276236 h -6.986883 c 0.667113,-1.306754 1.925484,-2.276236 3.493441,-2.276236 z m -3.493441,5.787038 h 7.137346 l -0.150463,0.258487 c -0.719395,1.24386 -2.059386,2.017748 -3.493442,2.017748 -1.567957,0 -2.826328,-0.969482 -3.493441,-2.276235 z M 8.7770062,14.564043 v 20.871914 h 8.9891968 c 3.358285,0 6.095679,-2.737305 6.095679,-6.095679 0,-1.713476 -0.752516,-3.231959 -1.896219,-4.340278 1.143703,-1.108319 1.896219,-2.626802 1.896219,-4.340278 0,-3.358374 -2.737394,-6.095679 -6.095679,-6.095679 z m 3.5108018,3.510802 h 5.478395 c 1.428413,0 2.584877,1.15648 2.584877,2.584877 0,1.428397 -1.156448,2.584877 -2.584877,2.584877 h -5.478395 z m 0,8.680556 h 5.478395 c 1.428429,0 2.584877,1.15648 2.584877,2.584877 0,1.428397 -1.156464,2.584877 -2.584877,2.584877 H 12.287808 Z M 7.5424382,0 C 3.3865079,0 0,3.3865128 0,7.5424382 V 42.457561 C 0,46.613487 3.3865066,50 7.5424382,50 H 42.457561 C 46.613528,50 50,46.613489 50,42.457561 V 7.5424382 C 50,3.386511 46.613527,0 42.457561,0 Z m 0,3.5108025 H 42.457561 c 2.226062,0 4.031636,1.8056259 4.031636,4.0316357 V 42.457561 c 0,2.226037 -1.805569,4.031636 -4.031636,4.031636 H 7.5424382 c -2.226013,0 -4.0316357,-1.805602 -4.0316357,-4.031636 V 7.5424382 c 0,-2.2260065 1.805628,-4.0316357 4.0316357,-4.0316357 z" />
</svg>
