<svg width="50" height="50" viewBox="0 0 50 50" version="1.1" xmlns="http://www.w3.org/2000/svg">
<path d="M 24.999999,0 C 11.543309,0 0.5555,11.224669 0.5555,24.998779 0.5555,38.772889 11.543309,50 24.999999,50 38.456716,50 49.4445,38.772888 49.4445,24.998779 49.4445,11.224671 38.456715,1.250061e-8 24.999999,0 Z m 0,3.8454026 c 4.915818,0 9.399325,1.7418691 12.937615,4.6633137 C 36.138024,10.770207 32.84312,13.905387 27.302353,15.962693 24.295427,10.40065 21.776163,6.833141 20.029065,4.4826407 21.61524,4.0860836 23.284291,3.8454026 24.999999,3.8454026 Z M 16.303305,5.8303628 C 17.775872,7.7701985 20.42665,11.404112 23.588801,17.102887 15.475423,19.276455 8.123708,19.423016 5.0796368,19.327116 6.7130959,13.317688 10.850503,8.402479 16.303305,5.8303628 Z M 40.64042,11.177304 c 3.125954,3.713954 5.041738,8.530323 5.041738,13.821475 0,0.793591 -0.04715,1.564579 -0.1294,2.334099 -0.118368,-0.01665 -0.231266,-0.03527 -0.341812,-0.05128 -0.524871,-0.07575 -0.996256,-0.143286 -1.711506,-0.202647 h -0.0025 c -2.917193,-0.228487 -6.766824,-0.227154 -10.940452,0.410178 -1.092879,-2.896467 -2.291685,-5.579221 -3.525556,-8.091217 5.801521,-2.270247 9.482708,-5.624867 11.609429,-8.220616 z m -15.264427,9.41208 c 1.186972,2.37991 2.338989,4.928423 3.408363,7.668832 -4.963765,1.507316 -9.435518,4.916255 -12.903434,8.113188 -1.845344,1.683015 -3.361684,3.291321 -4.489956,4.553445 -4.336237,-3.882044 -7.085291,-9.551583 -7.085291,-15.913862 0,-0.619565 0.044634,-1.211066 0.090337,-1.806729 l 0.00243,-0.04395 c 2.6859085,0.108405 11.239453,0.19561 20.977542,-2.570927 z m 19.424735,10.51565 c -1.363224,4.69959 -4.288882,8.702695 -8.154678,11.3946 -0.622873,-3.954552 -1.585565,-7.751606 -2.749151,-11.333562 1.348603,-0.179896 2.672971,-0.301134 3.916197,-0.361346 h 0.0073 c 2.329645,-0.08367 4.259645,-0.08199 6.980256,0.300308 z m -14.666212,0.756873 c 1.339665,3.954167 2.398822,8.175359 2.998186,12.598271 -2.504026,1.08206 -5.24081,1.694419 -8.144911,1.694419 -3.868993,0 -7.448421,-1.093088 -10.540041,-2.956687 1.045741,-1.141671 2.338493,-2.523683 3.935731,-3.977245 v -0.0025 c 3.307428,-3.035971 7.690014,-6.174697 11.751035,-7.356317 z" />
</svg>
