<svg width="50" height="50" viewBox="0 0 50 50" version="1.1" xmlns="http://www.w3.org/2000/svg">
<path d="m 14.751626,0 v 0.0122081 c -7.8050838,0 -14.195126,6.5234 -14.195126,14.5148689 V 35.507105 C 0.5565,43.486145 6.9462063,50 14.751626,50 H 35.270347 C 43.063158,50 49.4435,43.477035 49.4435,35.485131 V 14.514869 C 49.4435,6.5233315 43.062529,0 35.258139,0 Z m 0,3.8576102 h 20.506513 c 5.798714,0 10.425385,4.7408581 10.425385,10.6694668 v 20.970261 c 0,5.92824 -4.626503,10.669467 -10.413177,10.669467 H 14.751626 c -5.8097642,0 -10.435151,-4.742794 -10.435151,-10.647492 V 14.539285 C 4.328243,8.5989197 8.9522666,3.8576102 14.751626,3.8576102 Z m 25.301702,3.8454027 c -1.027137,0 -1.879987,0.8633579 -1.879987,1.921481 0,1.0581221 0.852843,1.9239211 1.879987,1.9239211 1.027082,0 1.879987,-0.865799 1.879987,-1.9239211 0,-1.0581231 -0.852913,-1.921481 -1.879987,-1.921481 z M 25.010987,11.548415 c -7.229889,0 -13.162355,6.054366 -13.162355,13.457688 0,7.403443 5.932466,13.457689 13.162355,13.457689 7.230007,0 13.162354,-6.054246 13.162354,-13.457689 0,-7.403322 -5.932347,-13.457688 -13.162354,-13.457688 z m 0,3.845403 c 5.234622,0 9.402378,4.272236 9.402378,9.612285 0,5.340051 -4.167765,9.612286 -9.402378,9.612286 -5.234482,0 -9.402379,-4.272235 -9.402379,-9.612286 0,-5.340049 4.167889,-9.612285 9.402379,-9.612285 z" />
</svg>
