<svg width="50" height="50" version="1.1" viewBox="0 0 50 50" xmlns="http://www.w3.org/2000/svg">
<path d="M 7.5429688,0.06640625 C 3.3878888,0.06640625 0,3.442558 0,7.5878906 V 42.412109 c 0,4.14537 3.3878765,7.521485 7.5429688,7.521485 H 42.457031 C 46.612159,49.933594 50,46.557479 50,42.412109 V 7.5878906 C 50,3.442558 46.612159,0.06640625 42.457031,0.06640625 Z m 0,3.50195315 H 42.457031 c 2.227006,0 4.035157,1.7998684 4.035157,4.0195312 V 42.412109 c 0,2.21975 -1.808139,4.019532 -4.035157,4.019532 H 7.5429688 c -2.2269693,0 -4.0332032,-1.799782 -4.0332032,-4.019532 V 7.5878906 c 0,-2.2196628 1.8062462,-4.0195312 4.0332032,-4.0195312 z m 9.2128902,7.8886716 c -1.675369,0.0023 -2.87015,1.185513 -2.867187,2.841797 0.003,1.65527 1.178941,2.835089 2.826172,2.833984 0.84444,-3.7e-4 1.564348,-0.293222 2.072265,-0.792968 0.507917,-0.499748 0.805332,-1.205665 0.802735,-2.033203 -0.0028,-0.83649 -0.296143,-1.549398 -0.796875,-2.052735 -0.500858,-0.503326 -1.20878,-0.798012 -2.03711,-0.796875 z m 15.548829,7.791016 c -0.879918,0.01874 -1.724709,0.199251 -2.515626,0.630859 -0.809358,0.441383 -1.421026,1.095696 -1.951171,1.832032 -0.03738,0.05164 -0.07542,0.101074 -0.113282,0.152343 -0.01439,-0.006 -0.02895,-0.0135 -0.04297,-0.01953 v -2.203125 h -5.28711 V 36.072266 H 27.6875 v -0.251954 c 0,-2.970418 -0.0012,-5.941567 0,-8.912109 0,-0.19438 0.0102,-0.391435 0.01367,-0.585937 0.015,-0.817358 0.37281,-1.477268 0.919922,-2.0625 1.088694,-1.164562 3.825317,-1.308797 4.458984,1.148437 0.153438,0.595806 0.199219,1.199621 0.199219,1.810547 -7.38e-4,2.869848 0,5.74111 0,8.611328 v 0.242188 h 5.300781 c 0.0037,-0.07045 0.0098,-0.130425 0.0098,-0.191407 3.69e-4,-3.121276 0.0027,-6.242128 0,-9.363281 -0.0011,-1.084646 -0.111742,-2.155188 -0.447266,-3.193359 -0.430436,-1.332263 -1.166817,-2.444047 -2.373047,-3.203125 -0.940911,-0.591996 -1.985564,-0.840958 -3.085937,-0.873047 -0.127004,-0.0037 -0.253203,-0.0027 -0.378906,0 z m -18.40625,0.386719 v 16.447265 h 5.263671 V 19.634766 Z" />
</svg>
